<svg width="197" height="31" viewBox="0 0 197 31" fill="none" xmlns="http://www.w3.org/2000/svg">
<g clip-path="url(#clip0_2612_827)">
<path d="M20.0183 0C22.6916 0 24.9936 0.22696 26.9244 0.680879C28.8764 1.1081 30.5313 1.69553 31.8892 2.44315C33.2683 3.19078 34.3822 4.07193 35.2309 5.08657C36.0796 6.07451 36.7373 7.11585 37.2041 8.21059C37.6921 9.30533 38.0209 10.4268 38.1907 11.5749C38.3604 12.6964 38.4453 13.7778 38.4453 14.8191V16.0207C38.4453 17.0353 38.3604 18.1168 38.1907 19.2648C38.0209 20.3863 37.6921 21.5077 37.2041 22.6292C36.7373 23.7507 36.0796 24.8187 35.2309 25.8333C34.3822 26.8213 33.2683 27.7024 31.8892 28.4768C30.5313 29.2511 28.8764 29.8652 26.9244 30.3191C24.9725 30.7731 22.6704 31 20.0183 31H18.427C15.7749 31 13.4728 30.7731 11.5209 30.3191C9.59011 29.8652 7.93514 29.2511 6.55606 28.4768C5.19817 27.7024 4.08428 26.8213 3.21438 25.8333C2.3657 24.8187 1.69736 23.7507 1.20937 22.6292C0.742596 21.5077 0.42434 20.3863 0.254605 19.2648C0.0848682 18.1168 0 17.0353 0 16.0207V14.8191C0 13.7778 0.0848682 12.6964 0.254605 11.5749C0.42434 10.4268 0.742596 9.30533 1.20937 8.21059C1.69736 7.11585 2.3657 6.07451 3.21438 5.08657C4.06306 4.07193 5.16635 3.19078 6.52424 2.44315C7.90337 1.69553 9.55827 1.1081 11.489 0.680879C13.441 0.22696 15.7536 0 18.427 0H20.0183ZM25.9696 15.0594C25.9696 14.4186 25.8529 13.7644 25.6196 13.0969C25.4074 12.4293 25.0361 11.8286 24.5056 11.2946C23.9965 10.7606 23.3069 10.3333 22.437 10.0129C21.5671 9.66583 20.485 9.49225 19.1908 9.49225C17.8754 9.49225 16.7827 9.66583 15.9128 10.0129C15.0429 10.3333 14.3533 10.7606 13.8441 11.2946C13.3349 11.8286 12.9742 12.4293 12.762 13.0969C12.5499 13.7644 12.4438 14.4186 12.4438 15.0594V15.5401C12.4438 16.2076 12.5499 16.8885 12.762 17.5827C12.9954 18.2769 13.3773 18.9177 13.9078 19.5052C14.4382 20.0659 15.1278 20.5332 15.9764 20.907C16.8463 21.2541 17.9178 21.4277 19.1908 21.4277C20.485 21.4277 21.5565 21.2541 22.4052 20.907C23.2751 20.5598 23.9752 20.1059 24.5056 19.5452C25.0361 18.9845 25.4074 18.357 25.6196 17.6628C25.8529 16.9686 25.9696 16.2877 25.9696 15.6202V15.0594Z" fill="#2B2929"/>
<path d="M55.7991 31C52.4893 31 49.7735 30.5461 47.6518 29.6383C45.5301 28.7037 43.8539 27.5155 42.6234 26.0737C41.414 24.6051 40.5759 22.9897 40.1092 21.2274C39.6423 19.4384 39.409 17.6895 39.409 15.9806V14.7791C39.409 12.8833 39.6742 11.0542 40.2046 9.292C40.735 7.50302 41.6792 5.92765 43.0371 4.56589C44.4162 3.17743 46.2727 2.06934 48.6066 1.2416C50.9616 0.413868 53.9639 0 57.6132 0H58.6316C61.4323 0 63.8298 0.200259 65.8242 0.600777C67.8187 0.974592 69.4948 1.48192 70.8525 2.12274C72.2108 2.73687 73.2925 3.4578 74.0987 4.28553C74.905 5.11327 75.5206 5.9677 75.945 6.84884C76.3905 7.70327 76.6764 8.57108 76.8042 9.45217C76.9313 10.3067 76.9948 11.0943 76.9948 11.8153V11.8553H64.6466C64.6042 11.6684 64.4981 11.4148 64.3284 11.0943C64.1799 10.7739 63.8828 10.4668 63.4372 10.1732C63.0129 9.85275 62.3976 9.58567 61.5914 9.37208C60.8063 9.13175 59.7561 9.01167 58.4407 9.01167C57.2525 9.01167 56.2447 9.17183 55.4172 9.49225C54.5898 9.786 53.9108 10.1998 53.3804 10.7338C52.8499 11.2678 52.4575 11.9087 52.2029 12.6563C51.9695 13.404 51.8528 14.2317 51.8528 15.1395V15.5C51.8528 16.4345 51.9695 17.3157 52.2029 18.1434C52.4362 18.9444 52.8075 19.652 53.3168 20.2662C53.8472 20.8536 54.5155 21.3208 55.3218 21.668C56.1492 22.0151 57.157 22.1887 58.3452 22.1887C59.5121 22.1887 60.4775 22.0952 61.2413 21.9082C62.0263 21.6947 62.6416 21.4543 63.0872 21.1873C63.5539 20.8937 63.8722 20.5999 64.0419 20.3062C64.2329 20.0125 64.3284 19.7588 64.3284 19.5452H57.9314V13.4573H77.1544V30.3993H69.0387C68.9328 29.972 68.7415 29.438 68.4654 28.7972C68.1901 28.1563 67.9034 27.649 67.6062 27.2752C67.4156 27.4888 67.076 27.8093 66.5881 28.2364C66.1212 28.6369 65.4529 29.0508 64.583 29.478C63.7343 29.8786 62.6629 30.2257 61.3686 30.5194C60.0744 30.8398 58.4937 31 56.6266 31H55.7991Z" fill="#2B2929"/>
<path d="M99.2809 27.5569C97.7339 27.5569 96.4133 27.445 95.3177 27.221C94.2229 27.0144 93.2988 26.7301 92.5461 26.3684C91.7935 26.0066 91.1911 25.5931 90.739 25.128C90.3014 24.6629 89.9658 24.1805 89.7334 23.681C89.5004 23.1814 89.3502 22.6904 89.2813 22.2081C89.2131 21.7085 89.1787 21.252 89.1787 20.8386V20.6319H98.3158C98.3158 20.8386 98.3429 21.0625 98.3979 21.3037C98.4528 21.5449 98.562 21.7689 98.7262 21.9755C98.8904 22.1823 99.13 22.3545 99.4451 22.4924C99.7734 22.6302 100.205 22.6991 100.739 22.6991C101.19 22.6991 101.567 22.6646 101.868 22.5957C102.169 22.5096 102.409 22.4062 102.587 22.2856C102.764 22.165 102.888 22.0273 102.956 21.8722C103.038 21.6999 103.079 21.5277 103.079 21.3554V21.2779C103.079 21.1229 103.052 20.9678 102.997 20.8128C102.956 20.6577 102.84 20.52 102.648 20.3994C102.456 20.2788 102.169 20.1754 101.786 20.0893C101.416 20.0031 100.903 19.9429 100.246 19.9084L97.0223 19.7792C95.4482 19.7103 94.1679 19.495 93.1829 19.1332C92.1973 18.7715 91.4234 18.3149 90.8621 17.7637C90.3146 17.2125 89.9386 16.5837 89.7334 15.8774C89.5276 15.1711 89.425 14.439 89.425 13.681V13.4485C89.425 12.5527 89.5825 11.743 89.8976 11.0195C90.212 10.296 90.7462 9.68445 91.4989 9.18487C92.2515 8.66812 93.2445 8.28048 94.4764 8.02208C95.7215 7.74646 97.2686 7.60864 99.1168 7.60864H101.724C103.778 7.60864 105.454 7.7723 106.754 8.0996C108.068 8.4097 109.095 8.84037 109.835 9.39162C110.587 9.94287 111.108 10.5889 111.395 11.3295C111.683 12.0531 111.826 12.8283 111.826 13.6551V13.7844H102.874C102.86 13.6293 102.826 13.4657 102.771 13.2934C102.717 13.1039 102.607 12.9316 102.443 12.7766C102.278 12.6215 102.046 12.4924 101.745 12.389C101.444 12.2856 101.04 12.234 100.533 12.234C100.068 12.234 99.6913 12.2598 99.404 12.3115C99.1167 12.346 98.8904 12.4062 98.7262 12.4924C98.562 12.5785 98.4528 12.6905 98.3979 12.8283C98.3429 12.9489 98.3158 13.0867 98.3158 13.2417V13.2934C98.3158 13.4829 98.3568 13.6465 98.4389 13.7844C98.5349 13.905 98.6924 14.017 98.9109 14.1203C99.13 14.2064 99.4312 14.284 99.8145 14.3529C100.198 14.4045 100.684 14.439 101.273 14.4562L104.352 14.5595C105.844 14.6112 107.097 14.7663 108.11 15.0247C109.136 15.283 109.964 15.6535 110.595 16.1358C111.237 16.6181 111.696 17.221 111.97 17.9445C112.257 18.6509 112.401 19.495 112.401 20.4769V20.8386C112.401 21.7 112.264 22.5355 111.991 23.3451C111.717 24.1375 111.196 24.8524 110.43 25.4898C109.677 26.1099 108.623 26.6095 107.268 26.9884C105.913 27.3674 104.147 27.5569 101.97 27.5569H99.2809Z" fill="#2B2929"/>
<path d="M119.016 14.5594H112.426V7.94445H133.41V14.5594H126.819V27.1693H119.016V14.5594Z" fill="#2B2929"/>
<path d="M142.288 20.3475L133.562 7.94434H142.555L146.477 13.7325L150.46 7.94434H158.735L150.091 20.4766V27.1691H142.288V20.3475Z" fill="#2B2929"/>
<path d="M166.832 7.94434V20.3216H177.428V27.1691H159.03V7.94434H166.832Z" fill="#2B2929"/>
<path d="M196.918 7.94445V13.3191H186.18V14.8178H196.795V20.0892H186.18V21.7429H197V27.1693H178.5V7.94445H196.918Z" fill="#2B2929"/>
</g>
<defs>
<clipPath id="clip0_2612_827">
<rect width="197" height="31" fill="white"/>
</clipPath>
</defs>
</svg>
