<svg width="32" height="32" viewBox="0 0 32 32" fill="none" xmlns="http://www.w3.org/2000/svg">
<circle cx="16" cy="16" r="15.5" stroke="#464646"/>
<path d="M23.9693 12.1709L18.3573 17.7829C17.7316 18.407 16.8838 18.7575 16 18.7575C15.1162 18.7575 14.2684 18.407 13.6427 17.7829L8.03067 12.1709C8.02133 12.2762 8 12.3715 8 12.4762V20.4762C8.00106 21.3599 8.35259 22.2072 8.97748 22.832C9.60237 23.4569 10.4496 23.8085 11.3333 23.8095H20.6667C21.5504 23.8085 22.3976 23.4569 23.0225 22.832C23.6474 22.2072 23.9989 21.3599 24 20.4762V12.4762C24 12.3715 23.9787 12.2762 23.9693 12.1709Z" fill="#464646"/>
<path d="M17.4148 16.8402L23.5041 10.7502C23.2091 10.2611 22.7931 9.85621 22.2961 9.57468C21.7991 9.29314 21.2379 9.14442 20.6668 9.14286H11.3334C10.7622 9.14442 10.2011 9.29314 9.70411 9.57468C9.20713 9.85621 8.79108 10.2611 8.49609 10.7502L14.5854 16.8402C14.9611 17.2144 15.4698 17.4245 16.0001 17.4245C16.5304 17.4245 17.039 17.2144 17.4148 16.8402Z" fill="#464646"/>
</svg>
