<svg width="32" height="32" viewBox="0 0 32 32" fill="none" xmlns="http://www.w3.org/2000/svg">
<circle cx="16" cy="16" r="15.5" stroke="#464646"/>
<path d="M24.0029 12.1652C24.0029 17.2586 17.2494 24.0054 12.1627 24.0054C11.0493 24.0054 10.0093 23.5854 9.24259 22.8187L8.57591 22.052C7.80256 21.2787 7.80256 19.972 8.60925 19.1653C8.62925 19.1453 10.2359 17.912 10.2359 17.912C10.6208 17.5461 11.1316 17.342 11.6626 17.342C12.1937 17.342 12.7045 17.5461 13.0893 17.912L14.0627 18.692C16.1961 17.7853 17.7095 16.2653 18.6828 14.0585L17.9095 13.0852C17.5405 12.7019 17.3344 12.1905 17.3344 11.6585C17.3344 11.1265 17.5405 10.6151 17.9095 10.2318C17.9095 10.2318 19.1428 8.62508 19.1628 8.60508C19.3545 8.41325 19.5821 8.26108 19.8326 8.15726C20.0831 8.05344 20.3517 8 20.6229 8C20.894 8 21.1626 8.05344 21.4131 8.15726C21.6636 8.26108 21.8912 8.41325 22.0829 8.60508L22.7829 9.21176C23.1729 9.59641 23.4819 10.0554 23.6914 10.5615C23.901 11.0677 24.0069 11.6107 24.0029 12.1585V12.1652Z" fill="#464646"/>
</svg>
