<svg width="32" height="32" viewBox="0 0 32 32" fill="none" xmlns="http://www.w3.org/2000/svg">
<path d="M18.1458 13.7931C18.6569 13.2729 19.1644 12.0592 17.0346 13.533C15.045 14.9264 13.042 16.2998 11.0257 17.6529C10.7187 17.7942 10.3868 17.8709 10.0499 17.8783C9.71305 17.8858 9.37817 17.8239 9.0654 17.6963C7.78752 17.3061 6.29573 16.786 6.29573 16.786C6.29573 16.786 5.27713 16.1348 7.02079 15.4413C7.02079 15.4413 14.3927 12.3626 16.9494 11.278C17.9291 10.8445 21.2525 9.45742 21.2525 9.45742C21.2525 9.45742 22.7869 8.84962 22.6591 10.3244C22.6165 10.9312 22.2757 13.0572 21.935 15.3546C21.4229 18.6066 20.8691 22.163 20.8691 22.163C20.8691 22.163 20.784 23.1599 20.0598 23.3333C19.2846 23.32 18.5357 23.0456 17.93 22.5531C17.7596 22.423 14.7344 20.4715 13.626 19.5178C13.5132 19.4401 13.4216 19.3346 13.3597 19.2112C13.2977 19.0877 13.2675 18.9504 13.2717 18.8118C13.276 18.6733 13.3146 18.5381 13.384 18.4189C13.4534 18.2996 13.5513 18.2002 13.6686 18.1297C15.1888 16.7143 16.6815 15.2685 18.1458 13.7931Z" fill="#464646"/>
<circle cx="16" cy="16" r="15.5" stroke="#464646"/>
</svg>
