<?xml version="1.0" standalone="no"?>
<!DOCTYPE svg PUBLIC "-//W3C//DTD SVG 20010904//EN"
 "http://www.w3.org/TR/2001/REC-SVG-20010904/DTD/svg10.dtd">
<svg version="1.0" xmlns="http://www.w3.org/2000/svg"
 width="24.000000pt" height="24.000000pt" viewBox="0 0 24.000000 24.000000"
 preserveAspectRatio="xMidYMid meet">

<g transform="translate(0.000000,24.000000) scale(0.100000,-0.100000)"
fill="#000000" stroke="none">
<path d="M75 231 c-45 -20 -70 -60 -70 -112 0 -42 5 -53 33 -81 28 -28 39 -33
82 -33 43 0 54 5 82 33 28 28 33 39 33 82 0 42 -5 54 -31 81 -33 33 -92 46
-129 30z m119 -41 c22 -22 29 -37 29 -69 0 -22 -6 -48 -13 -56 -12 -14 -16
-13 -37 7 -16 15 -20 25 -13 32 18 18 11 55 -15 72 -23 15 -27 15 -50 0 -26
-17 -33 -54 -15 -72 7 -7 3 -17 -13 -32 -21 -20 -25 -21 -37 -7 -23 28 -16 93
15 125 45 47 100 47 149 0z m-43 -36 c17 -21 0 -49 -31 -49 -31 0 -48 28 -31
49 8 9 21 16 31 16 10 0 23 -7 31 -16z m14 -94 c14 -15 16 -23 7 -32 -14 -14
-90 -14 -104 0 -17 17 19 52 52 52 15 0 35 -9 45 -20z"/>
</g>
</svg>
